<?xml version="1.0" encoding="utf-8"?>
<!-- Generator: Adobe Illustrator 16.0.0, SVG Export Plug-In . SVG Version: 6.00 Build 0)  -->
<!DOCTYPE svg PUBLIC "-//W3C//DTD SVG 1.1//EN" "http://www.w3.org/Graphics/SVG/1.1/DTD/svg11.dtd">
<svg version="1.1" id="Capa_5" xmlns="http://www.w3.org/2000/svg" xmlns:xlink="http://www.w3.org/1999/xlink" x="0px" y="0px"
	 width="595.28px" height="841.89px" viewBox="0 0 595.28 841.89" enable-background="new 0 0 595.28 841.89" xml:space="preserve">
<g>
	<ellipse fill="#7D4F1E" cx="296.32" cy="442.152" rx="281.194" ry="304.848"/>
	<path fill="#B76A24" d="M287.801,203.25c0,0-88.226,8.219-95.067,88.84c-6.842,80.62-14.472,92.464-14.472,92.464l-9.973,32.843
		c0,0-19.673,8.949-16.912,29.139c2.761,20.191,64.307,255.061,164.69,173.693c0,0,11.559,26.343,52.52,6.333
		c40.96-20.007,130.291-191.075,43.031-223.895c0,0,6.934-24.388-17.947-29.504c0,0-11.044-17.131-0.691-50.16
		c10.355-33.028-22.436-133.318-108.549-119.754"/>
	<polygon fill="#E3AD47" points="537.96,471.083 515.7,455.989 490.647,465.77 498.123,439.936 481.08,419.131 507.96,418.258 
		522.479,395.619 531.616,420.914 557.634,427.727 536.4,444.233 	"/>
	<polygon fill="#E3AD47" points="93.042,496.744 81.593,472.408 55.056,468.043 74.663,449.633 70.614,423.045 94.18,436.004 
		118.215,423.938 113.173,450.355 132.077,469.486 105.395,472.854 	"/>
	<g>
		<path fill="#FFFFFF" d="M110.177,562.278h8.22v47.734h11.204v6.475h-19.424V562.278z"/>
	</g>
	<g>
		<path fill="#FFFFFF" d="M172.554,618.945h9.458l10.029,54.209h-8.315l-1.492-9.712h-9.902l-1.428,9.712h-8.347L172.554,618.945z
			 M181.282,657.254l-3.809-27.01h-0.349l-3.84,27.01H181.282z"/>
	</g>
	<g>
		<path fill="#FFFFFF" d="M243.376,657.611h8.284v39.736c0,1.693,0.084,3.1,0.254,4.221c0.169,1.122,0.439,2.016,0.809,2.683
			c0.37,0.666,0.846,1.143,1.429,1.428c0.582,0.286,1.274,0.429,2.079,0.429c0.804,0,1.507-0.143,2.111-0.429
			c0.603-0.285,1.1-0.762,1.491-1.428c0.392-0.667,0.688-1.561,0.889-2.683c0.201-1.121,0.302-2.527,0.302-4.221v-39.736h8.188
			v37.547c0,2.645-0.212,4.908-0.635,6.791c-0.423,1.884-0.984,3.46-1.682,4.729s-1.497,2.274-2.396,3.015
			c-0.9,0.741-1.831,1.307-2.793,1.698c-0.963,0.392-1.92,0.64-2.873,0.746c-0.952,0.105-1.82,0.159-2.603,0.159
			c-0.783,0-1.646-0.054-2.586-0.159c-0.942-0.106-1.889-0.354-2.841-0.746s-1.873-0.957-2.761-1.698
			c-0.889-0.74-1.682-1.745-2.38-3.015s-1.254-2.841-1.666-4.713c-0.413-1.873-0.619-4.142-0.619-6.808V657.611z"/>
	</g>
	<g>
		<path fill="#FFFFFF" d="M326.391,657.611h20.726v6.475h-12.505v16.219h9.807v6.475h-9.807v25.041h-8.221V657.611z"/>
	</g>
	<g>
		<path fill="#FFFFFF" d="M405.58,618.945h20.091v6.475h-11.87v16.219h9.172v6.475h-9.172v18.566h12.188v6.475H405.58V618.945z"/>
	</g>
	<g>
		<path fill="#FFFFFF" d="M472.69,598.428l-10.918-36.149h8.284l6.633,25.931h0.381l6.57-25.931h8.252l-10.982,36.149v18.06h-8.22
			V598.428z"/>
	</g>
	<g>
		<path fill="#E0A979" d="M254.922,339.608c0,0-5.915,26.238-4.37,30.469c1.544,4.231,16.193,49.044,31.267,48.396
			c15.075-0.648,0.343,0.021,0.343,0.021s4.642,4.389-4.283-7.13c-8.925-11.519-22.381-32.376-22.864-43.34
			C254.531,357.06,261.972,337.019,254.922,339.608"/>
		<path fill="#E0A979" d="M243.387,332.907c0,0,4.323-2.85,4.342,2.005c0.021,4.855,0.372,32.302,0.304,34.442
			c-0.067,2.14-5.524-1.009-5.524-1.009S241.402,333.702,243.387,332.907"/>
		<path fill="#E0A979" d="M239.981,319.184c0,0,1.981-8.205,3.515-2.417s1.636,16.878,1.636,16.878l-3.813-0.072L239.981,319.184z"
			/>
		<path d="M242.557,398.026c0,0,86.095,35.181,106.221,6.322s51.15,66.87,20.285,122.862
			C338.198,583.201,263.668,641,239.749,554.303s-10.037-157.744,0-155.636"/>
		<g>
			<g>
				<path fill="#F2DDC4" d="M287.225,245.863c0,0-26.166,8.211-32.939,22.622c-6.771,14.409-18.999,67.688-16.391,86.353
					c2.607,18.666,10.813,28.136,22.626,41.748c11.813,13.609,20.91,32.987,56.62,20.309c0,0,38.663-12.62,41.767-115.522
					C358.907,301.372,347.668,238.326,287.225,245.863z"/>
				<g>
					<path fill="#DDBB97" d="M281.082,252.634c0,0-56.862,22.11-40.085,103.703c16.776,81.593,0.236,0.955,0.236,0.955
						s5.153,25.042,20.34,41.241c15.188,16.197,12.168,14.668,16.466,17.095c4.299,2.428,10.82,5.401,16.305,5.333
						c0,0-32.138-15.276-39.953-74.564C254.391,346.396,253.458,273.409,281.082,252.634z"/>
				</g>
			</g>
			<path fill="#EAD3BA" d="M312.213,362.145c0,0,11.13,8.651,11.609,19.274C324.301,392.042,335.77,358.184,312.213,362.145z"/>
			<path fill="#593617" d="M240.191,305.289c0,0,29.723-8.155,41.859,4.554c0,0,5.674-3.727-4.568-7.658
				C267.24,298.252,243.423,296.186,240.191,305.289z"/>
			<path fill="#593617" d="M354.543,313.208c0,0-25.635-14.319-38.802-0.554c0,0-4.526-5.385,5.44-8.695
				C331.149,300.65,353.137,301.604,354.543,313.208z"/>
			<path fill="#10120D" d="M255.971,315.397c0,0,20.288-8.553,29.456,7.445C285.427,322.843,282.213,303.694,255.971,315.397z"/>
			<path fill="#10120D" d="M348.778,322.398c0,0-16.507-14.976-30.175-2.963C318.604,319.435,327.627,302.421,348.778,322.398z"/>
			<path fill="#DDBB97" d="M254.742,332.301c-0.277-0.192,12.398,7.678,26.122,2.373
				C280.863,334.673,277.633,348.238,254.742,332.301z"/>
			<path fill="#F4E3CF" d="M259.017,341.937c0,0,23.376-0.248,27.827-2.814c4.451-2.566,5.089-0.431,3.154,3.423
				c-1.935,3.853-6.662,12.074-12.905,19.912c-6.243,7.837,3.648,31.381,0.25,32.022
				C273.943,395.12,247.006,341.169,259.017,341.937z"/>
			<path opacity="0.7" fill="#DDBB97" d="M288.871,321.225c0,0,3.227,13.036,2.016,25.833c0,0,3.339-0.778,4.044,0.585
				c0.706,1.363-1.094-29.318,2.508-31.723c0,0-8.259,3.325-10.021-0.196L288.871,321.225z"/>
			<path fill="#F8EDE0" d="M303.71,347.774c0,0-4.421,1.076-3.092,5.697c1.329,4.622,4.743,3.803,6.782,3.179
				c2.039-0.625,3.417-0.985,1.197-2.468C306.378,352.698,307.87,346.914,303.71,347.774z"/>
			<path fill="#F8EDE0" d="M301.29,314.333c0,0-2.323,23.053-0.491,26.338c1.832,3.286,2.463-0.24,2.668,0.826
				c0.206,1.065-0.104-24.65,0.497-26.642C304.566,312.862,300.923,311.262,301.29,314.333z"/>
			<path fill="#F4E3CF" d="M314.207,334c0,0,16.975,7.023,28.757,1.875c0,0,9.398-4.543,2.266,5.604
				c-7.133,10.148,1.536,26.593-8.295,45.15c-9.831,18.557-15.813,21.446-13.466,13.709c2.347-7.737,10.102-33.092,2.945-39.849
				C319.258,353.734,302.678,334.658,314.207,334z"/>
			<g>
				<path fill="#FFFFFF" d="M285.178,327.213c0,0-11.307-19.764-34.086-5.539C251.091,321.675,272.05,337.717,285.178,327.213z"/>
				<path fill="#10120D" d="M285.156,327.581c0,0-8.673-18.86-33.139-5.48l-6.67-2.264l8.191-1.488
					C253.539,318.349,276.287,307.312,285.156,327.581z"/>
				<path fill="#E0E0E0" d="M251.427,321.854c0,0,8.946-4.718,14.73-4.54c0,0-6.281,7.737,1.972,11.481c0,0,3.383,1.809,4.986,2.028
					C273.115,330.824,259.204,329.485,251.427,321.854z"/>
				<g>
					<path fill="#10120D" d="M275.684,323.581c-0.223,3.908-3.406,6.886-7.108,6.651s-6.523-3.593-6.3-7.501
						c0.224-3.909,3.406-6.887,7.108-6.652C273.087,316.314,275.907,319.672,275.684,323.581z"/>
					<g>
						<path fill="#593617" d="M273.588,323.67c-0.155,2.71-2.228,4.783-4.629,4.63c-2.401-0.152-4.222-2.471-4.068-5.182
							c0.155-2.708,2.227-4.782,4.628-4.629C271.921,318.641,273.742,320.961,273.588,323.67z"/>
						<path fill="#FFFFFF" d="M272.559,321.51c-0.049,0.866-0.711,1.527-1.479,1.479c-0.767-0.048-1.349-0.79-1.3-1.655
							c0.05-0.865,0.712-1.527,1.479-1.479C272.026,319.903,272.608,320.644,272.559,321.51z"/>
						<path fill="#FFFFFF" d="M266.182,321.461c0,0-1.739,6.142,4.83,5.783C271.012,327.244,265.63,327.078,266.182,321.461z"/>
					</g>
				</g>
			</g>
			<g>
				<path fill="#FFFFFF" d="M312.411,327.204c0,0,13.331-18.353,34.465-1.613C346.876,325.591,324.345,339.144,312.411,327.204z"/>
				<path fill="#10120D" d="M312.393,327.571c0,0,10.619-17.754,33.519-1.662l6.87-1.489l-7.985-2.414
					C344.796,322.006,323.355,308.438,312.393,327.571z"/>
				<path fill="#E0E0E0" d="M346.523,325.732c0,0-8.392-5.711-14.158-6.194c0,0,5.423,8.406-3.178,11.186
					c0,0-3.555,1.412-5.171,1.446C324.017,332.17,337.986,332.428,346.523,325.732z"/>
				<g>
					<path fill="#10120D" d="M322.231,324.678c-0.193,3.91,2.655,7.233,6.36,7.423c3.705,0.189,6.864-2.828,7.056-6.737
						c0.193-3.91-2.654-7.234-6.36-7.423C325.582,317.752,322.423,320.768,322.231,324.678z"/>
					<g>
						<path fill="#593617" d="M324.305,325.007c-0.133,2.71,1.708,5.007,4.11,5.13c2.403,0.124,4.459-1.975,4.592-4.686
							c0.135-2.71-1.706-5.008-4.108-5.13C326.494,320.198,324.438,322.296,324.305,325.007z"/>
						
							<ellipse transform="matrix(-0.9987 -0.0509 0.0509 -0.9987 637.0386 662.3066)" fill="#FFFFFF" cx="326.947" cy="323.047" rx="1.392" ry="1.57"/>
						<path fill="#FFFFFF" d="M331.899,323.656c0,0,1.079,6.303-5.413,5.196C326.486,328.852,331.854,329.301,331.899,323.656z"/>
					</g>
				</g>
			</g>
			<path fill="#10120D" d="M251.427,321.854c0,0,11.615,8.968,21.688,8.97c0,0-15.885,0.261-24.398-9.844"/>
			<path fill="#DDBB97" d="M312.377,328.243c-0.277-0.192,12.398,7.678,26.123,2.373C338.5,330.615,335.269,344.18,312.377,328.243z
				"/>
			<path fill="#EAD3BA" d="M284.628,358.95c0,0-3.81,5.98,0.499,8.726c0,0,0.375,3.988-3.135,2.366
				c-3.509-1.622-4.81,2.595-5.678,6.49c-0.869,3.896,0.203,16.211,1.635,20.042c1.432,3.83-13.93-27.818,5.801-37.69"/>
			<path fill="#EAD3BA" d="M295.299,367.061c0,0-1.68,5.274,1.044,7.568c2.723,2.294,4.474,1.146,4.884-0.614
				c0.411-1.758-1.361-0.211-1.746-2.484C299.097,369.258,298.273,364.997,295.299,367.061z"/>
			<g>
				<g>
					<path fill="#9E5A1C" d="M276.391,379.546l17.872-2.096c0,0,4.181,3.508,5.756,2.42c1.574-1.087,6.179-2.319,6.179-2.319
						s17.759,1.542,19.719,0.305c0,0-17.162,6.98-21.002,4.211c0,0-3.299,2.466-4.605,2.553c-1.31,0.088-7.373-1.61-7.373-1.61
						S283.018,382.527,276.391,379.546z"/>
				</g>
				<path fill="#9E5A1C" d="M276.292,379.981c0,0,35.563,3.28,47.149-1.102c0,0-9.239,11.999-13.648,12.372
					c-4.409,0.372-16.52,2.809-21.821-1.345C282.669,385.751,276.292,379.981,276.292,379.981z"/>
				<path fill="#593617" d="M276.385,379.849c0,0,17.15,1.682,18.902,2.479c1.752,0.799,3.52,0.695,7.062,0.139
					c3.543-0.555,19.442-2.517,19.442-2.517s-21.245,4.547-25.026,3.64C292.984,382.682,276.385,379.849,276.385,379.849z"/>
				<path fill="#C57534" d="M295.835,385.498c0,0,4.445-1.227,5.203-0.584c0.756,0.644,0.543,2.337-1.198,2.114
					C298.099,386.806,293.931,387.593,295.835,385.498z"/>
				<path fill="#C57534" d="M304.458,384.931c0,0,6.457-2.021,7.663-1.521c1.205,0.501,1.102,2.218-1.516,2.313
					C307.988,385.817,301.89,387.352,304.458,384.931z"/>
			</g>
			<path fill="#10120D" d="M336.764,318.687c0,0,3.945,1.859,5.216-2.715c0,0,2.072,4.272-1.271,4.574
				C337.365,320.849,336.764,318.687,336.764,318.687z"/>
			<path fill="#10120D" d="M343.741,321.399c0,0,3.463,0.472,3.71-3.704c0,0,1.527,5.111-1.918,5.245
				C342.089,323.074,343.741,321.399,343.741,321.399z"/>
			<path fill="#10120D" d="M259.776,316.384c0,0-2.868,0.568-2.532-3.493c0,0-2.06,3.561,1.21,4.271"/>
			<path fill="#10120D" d="M255.278,318.42c0,0-2.868,0.567-2.532-3.494c0,0-2.06,3.561,1.21,4.271"/>
			<path fill="#10120D" d="M348.379,324.314c0,0-11.941,8.505-22.007,8.11c0,0,15.863,0.886,24.747-8.877"/>
		</g>
		<path fill="#532E14" d="M208.992,366.135c0,0-23.41,45.439-12.573,62.599s-16.256,17.158-15.353,33.866
			c0.903,16.707,0.903,16.707,0.903,16.707s0.903-13.094,5.87-18.513c4.967-5.419,21.534-7.386,21.152-19.724"/>
		<path fill="#DDBB97" d="M286.835,364.087c0,0,2.593-1.751,4.567,0.846C291.402,364.933,290.282,359.46,286.835,364.087z"/>
		<path fill="#DDBB97" d="M303.221,363.753c0,0,0.699-1.523,2.287-1.523c1.587,0,1.975,1.918,0.229,1.523
			C303.991,363.359,303.221,363.753,303.221,363.753z"/>
		<path fill="#F8EDE0" d="M305.365,265.933c0,0-8.318,7.789-1.769,15.748s23.875,13.885,27.488,11.854
			c3.614-2.032,13.541-9.483,0.704-15.579S310.236,263.054,305.365,265.933z"/>
		<path fill="#CC976A" d="M241.798,313.955c0,0,2.15,3.354,3.324-8.134c1.173-11.489,28.281-44.782,40.305-55.329
			c12.023-10.547,1.721-11.2-9.73-2.823C264.246,256.047,238.351,291.99,241.798,313.955"/>
		<path fill="#CC976A" d="M250.294,357.137c0,0-3.951-43.105-10.103-44.521c-6.153-1.415-5.209,8.582-3.901,20.985
			c1.308,12.403,2.692,34.156,2.692,34.156L250.294,357.137z"/>
		<path fill="#CC976A" d="M285.139,223.365c0.323,0.046,8.38,14.945,1.485,23.792c-6.894,8.847-0.866,0.435-0.866,0.435
			s11.198,0.25,5.645-18.858L285.139,223.365"/>
		<path opacity="0.8" fill="#CC976A" d="M317.418,416.703c0,0-8.195-1.066,13.685-24.829c0,0,9.438-10.463,8.936-17.706
			s1.167-46.117,9.627-41.313c8.459,4.804,5.085,21.824,4.992,27.552c-0.093,5.728-13.785,46.131-21.177,51.439
			C326.089,417.154,317.418,416.703,317.418,416.703z"/>
		<path opacity="0.7" fill="#CC976A" d="M253.249,341.001c0,0,4.111-5.678,3.993-1.032c-0.118,4.646-2.52,28.524-3.699,31.801
			s32.53,47.879,33.871,48.081s-10.008,1.07-25.834-20.744C245.754,377.295,247.193,354.317,253.249,341.001z"/>
		<path fill="#E8BE97" d="M317.57,417.036c0,0,23.797-30.555,23.916-37.034c0.121-6.479,2.919-37.678,3.107-38.676
			c0.188-0.998,1.757-5.879,3.895-1.266c2.139,4.614,1.458,40.104,1.458,40.104s4.425-1.114,7.814-1.208
			c3.389-0.095,13.168-3.746,2.47,12.533s-7.178,22.534-18.746,30.397S307.531,425.368,317.57,417.036z"/>
		<path fill="#E8BE97" d="M286.914,422.068c0,0-27.583-16.099-37.569-53.887c0,0,5.595-26.482,3.899-30.411
			c-1.696-3.927-9.373,10.74-10.669,31.252l0.583,10.838c0,0-5.707,9.106-4.489,16.236c1.219,7.129,23.762,34.32,25.563,41.129
			c1.802,6.81,9.684,2.049,17.146,1.514c7.463-0.534,8.163,2.528,9.353-4.224C291.919,427.765,293.111,423.869,286.914,422.068z"/>
		<path fill="#E8BE97" d="M243.224,330.982c-0.301-3.602-0.509-6.272-0.565-7.414c-0.311-6.249-3.224-10.342-7.959-0.152
			c-4.734,10.188,2.104,58.552,6.02,74.611"/>
		<path fill="#E8BE97" d="M247.794,381.819c0,0-3.222-34.731-4.57-50.837"/>
		<path fill="#E8BE97" d="M249.248,385.615c0,0-3.839-41.876-4.085-46.908c-0.248-5.032-2.569-8.327-6.346-0.122
			c-3.775,8.206,1.669,47.15,4.788,60.082"/>
		<path fill="#E8BE97" d="M264.938,432.794c0,0-12.144,121.494-11.369,151.296c0.775,29.803,3.236,37.93,20.114,39.962
			s43.966,5.419,25.097-89.407c-18.872-94.824-7.727-102.646-7.727-102.646"/>
		<path fill="#E8BE97" d="M317.844,416.82c0,0-31.097,46.478-13.022,142.28s51.363,61.937,56.845,49.745s17.722-45.154,1.893-58.701
			c-15.829-13.546-39.059-90.988-19.315-132.868L317.844,416.82z"/>
		<path fill="#E8BE97" d="M203.967,434.588c0,0-53.417-15.056-30.388,56.371c23.029,71.427,80.202,149.19,112.574,131.08
			c32.374-18.11-10.41-32.108-5.5-41.591s5.225-2.258-9.156-18.514C257.115,545.68,242.483,435.48,203.967,434.588"/>
		<path fill="#E8BE97" d="M350.831,460.238c0,0-20.399,97.564-16.521,120.142c3.88,22.576-16.767,54.638,23.02,41.091
			c39.787-13.547,76.167-170.708,65.92-183.34c-10.248-12.633-11.274-31.146-49.191-25.728
			C336.141,417.822,352.697,451.042,350.831,460.238"/>
		<path fill="#DBA57A" d="M236.023,386.289c0,0,32.529,52.567,37.218,51.824c4.689-0.742,2.127-1.541,0.771,41.576
			s26.524,147.247,8.275,145.238c-17.463-1.925-27.987-3.016-30.037-8.706c-0.092-0.256-0.167-0.52-0.225-0.794
			c-1.343-6.388,3.322-143.901,8.974-163.729c5.652-19.827-19.566-6.304-23.657-65.41"/>
		<path fill="#CC976A" d="M286.021,249.745c0,0,71.472,27.549,72.525,60.409c0,0-0.22,2.482,1.707-0.311
			c0,0,1.444-11.495-7.313-22.371c0,0-43.561-38.28-57.205-40.793C295.736,246.678,286.787,248.009,286.021,249.745z"/>
		<path fill="#DBA57A" d="M174.115,492.601c0,0-13.09-57.652,30.479-55.96c0,0,9.925-1.171-1.451-2.258
			C191.768,433.295,153.742,423.848,174.115,492.601z"/>
		<g>
			<g>
				<path fill="#532E14" d="M288.378,247.688c0,0-39.445,33.366-43.411,56.241c-3.967,22.874-9.806,17.7-5.617,49.434
					c4.188,31.735,6.007,48.606,12.049,61.457c6.042,12.85-8.721,41.4-18.103,25.78c0,0,12.761,4.701,9.14-6.693
					c-3.622-11.393-31.195-87.703-20.442-109.321c10.753-21.619,0.002-17.359,17.178-45.178
					C256.349,251.588,271.401,240.117,288.378,247.688z"/>
				<path fill="#532E14" d="M314.133,247.34c0,0,40.91,31.273,44.858,57.029c0,0,2.317,4.241,5.643-1.772
					C367.961,296.583,332.879,227.191,314.133,247.34z"/>
				<path fill="#532E14" d="M360.032,300.993c0,0,0.099,65.004,5.45,77.632c0,0,25.564-74.85-3.262-108.797
					c0,0-17.579-41.286-55.962-41.094c0,0-6.913,10.012-11.949,14.427c-5.035,4.415,57.749,32.426,65.742,56.829"/>
				<path fill="#532E14" d="M283.579,212.221"/>
			</g>
			<path fill="#532E14" d="M296.978,246.153c0,0-58.257,15.617-62.146,47.722c-3.889,32.105-2.598,95.438,8.497,132.753
				c0,0,10.068,13.248,1.51,22.57c-8.558,9.323-16.161,22.39-0.692,35.553c0,0-25.695-6.241-13.783-28.712
				c11.912-22.47-26.289-76.407-18.709-111.98c7.578-35.575-1.127-48.271,14.718-66.264
				C242.215,259.803,269.043,218.074,296.978,246.153z"/>
			<path fill="#532E14" d="M281.689,247.86c0,0,19.75-2.454,23.684,0.446c3.933,2.9,2.993-19.548,2.993-19.548
				s-33.158-14.099-54.26,0.746c-21.103,14.845-64.882,52.96-39.451,126.102c0,0-14.455,52.744-0.7,71.293
				c13.756,18.551,12.936,25.31,5.556,32.961c0,0,16.771-13.232,10.355-45.871c-6.416-32.638-11.195-123.167,4.081-129.653
				C249.223,277.851,273.729,242.852,281.689,247.86z"/>
			<path fill="#E8BE97" d="M250.004,377.521c0,0-3.903-41.876-4.153-46.908c-0.251-5.031-2.611-8.327-6.45-0.121
				c-3.838,8.206,1.696,47.151,4.867,60.082"/>
			<path fill="#E8BE97" d="M349.243,366.279c0.072-3.725,4.861-48.522,5.602-50.029c0.738-1.507,8.727-13.889,6.874,1.657
				c-1.852,15.547,4.081,58.791,3.854,60.98c-0.229,2.189-11.534,15.237-14.783,14.085s-1.559-26.016-1.559-26.016"/>
			<path fill="#532E14" d="M209.637,316.28c0,0-9.275,51.625-6.521,63.888c2.754,12.264-19.878,52.759,26.78,86.246
				c0,0,13.01,5.491,0,18.135c-13.011,12.645-16.701,12.645-16.701,12.645s31.633,1.752,33.497-15.154
				c1.864-16.907,2.734-14.197-7.569-36.322c-10.303-22.128-25.713-42.686-18.469-56.965
				C227.898,374.472,218.912,311.924,209.637,316.28z"/>
			<path fill="#532E14" d="M373.059,347.751c0,0,1.01,34.313,11.106,38.596c0,0,21.572,11.508,4.131,34.987
				c-17.441,23.48-11.475,36.124-1.376,36.124c0,0-23.668,15.353-29.735-3.161c-6.066-18.513-21.381-23.892,7.619-73.808
				l0.774-23.885L373.059,347.751z"/>
		</g>
		<path opacity="0.8" fill="#CC976A" d="M347.971,338.639c0,0,5.206,26.759,2.079,39.837c0,0-0.177,4.14,1.312,1.143
			c1.488-2.996,3.793-27.888-3.292-40.458"/>
		<path fill="#DBA57A" d="M342.384,504.507c0,0,26.519,54.881,10.172,94.096c0,0,13.185-14.045,12.921-42.521
			C365.212,527.605,348.558,493.537,342.384,504.507z"/>
		<path fill="#DBA57A" d="M408.802,418.304c0,0,25.671,7.217,14.771,47.053c0,0-4.93-29.771-14.771-34.517
			C398.962,426.094,403.341,415.525,408.802,418.304z"/>
		<path fill="#381C0F" d="M258.403,237.911c0,0-30.372,5.861-38.197,72.384c-7.825,66.522,1.516,80.29,1.516,80.29
			s-6.556-112.384,36.688-136.831S262.225,236.488,258.403,237.911z"/>
		<path fill="#381C0F" d="M238.637,370.694c0,0-13.041,37.373-9.794,54.151c0,0,3.811,9.747,8.072,15.432
			c0,0-6.403-26.204,5.288-51.34L238.637,370.694z"/>
		<path fill="#381C0F" d="M205.637,403.748c0,0,1.705,30.849,24.249,45.68C229.886,449.428,193.45,434.043,205.637,403.748z"/>
		<path fill="#381C0F" d="M205.637,350.158c0,0-5.205,39.624,7.638,56.496c0,0-9.052-34.941-3.834-56.496
			C209.441,350.158,207.492,342.841,205.637,350.158z"/>
		<path fill="#381C0F" d="M260.875,269.764c0,0-30.857,22.994-25.11,80.601C235.766,350.364,215.686,300.196,260.875,269.764z"/>
		<path fill="#381C0F" d="M353.449,406.654c0,0-15.3,25.768,8.515,39.742c0,0-1.841,14.275,9.933,13.466
			c0,0-6.019-2.392-4.374-10.038c1.645-7.646-4.845-6.328-7.269-18.983C357.83,418.184,370.426,396.706,353.449,406.654z"/>
		<path fill="#381C0F" d="M299.866,236.706c0,0,37.681,14.318,48.745,38.046C348.611,274.751,336.558,228.72,299.866,236.706z"/>
		<path fill="#CC976A" d="M295.058,225.349c0,0,1.9,19.86-2.63,21.329C292.428,246.678,302.684,244.502,295.058,225.349z"/>
		<path fill="#381C0F" d="M360.254,289.78c0,0,8.491,41.402,5.992,66.034c0,0,7.586-37.492,0.46-53.513
			S359.595,274.28,360.254,289.78z"/>
	</g>
</g>
<g>
</g>
<g>
</g>
<g>
</g>
<g>
</g>
<g>
</g>
<g>
</g>
</svg>
